# Exported from Wings 3D 2.2.8
mtllib MM.mtl
o Cylinder8
#36 vertices, 39 faces
v -2.29919385 14.97894358 1.57428482
v -2.29919385 14.97894358 1.33771518
v -2.46647385 14.97894358 1.74156482
v -2.29919385 14.97894358 1.57428482
v -2.70304349 14.97894358 1.74156482
v -2.46647385 14.97894358 1.74156482
v -2.87032349 14.97894358 1.57428482
v -2.70304349 14.97894358 1.74156482
v -2.87032349 14.97894358 1.33771518
v -2.87032349 14.97894358 1.57428482
v -2.70304349 14.97894358 1.17043518
v -2.87032349 14.97894358 1.33771518
v -2.46647385 14.97894358 1.17043518
v -2.70304349 14.97894358 1.17043518
v -2.29919385 14.97894358 1.33771518
v -2.46647385 14.97894358 1.17043518
v -2.29919385 15.52003301 1.33771518
v -2.29919385 15.52003301 1.33771518
v -2.87032349 15.52003301 1.57428482
v -2.87032349 15.52003301 1.57428482
v -2.46647385 15.52003301 1.74156482
v -2.46647385 15.52003301 1.74156482
v -2.70304349 15.52003301 1.74156482
v -2.70304349 15.52003301 1.74156482
v -2.70304349 15.52003301 1.17043518
v -2.70304349 15.52003301 1.17043518
v -2.29919385 15.52003301 1.57428482
v -2.29919385 15.52003301 1.57428482
v -2.87032349 15.52003301 1.33771518
v -2.87032349 15.52003301 1.33771518
v -2.46647385 15.52003301 1.17043518
v -2.46647385 15.52003301 1.17043518
v -2.44617938 15.64806358 1.31742071
v -2.72333796 15.64806358 1.31742071
v -2.72333796 15.64806358 1.59457929
v -2.44617938 15.64806358 1.59457929
vn 1.00000000 0.0000000e+0 0.0000000e+0
vn 0.70710678 -0.70710678 0.0000000e+0
vn 0.31622777 -0.89442719 0.31622777
vn 0.50000000 -0.70710678 0.50000000
vn 0.0000000e+0 -0.70710678 0.70710678
vn 0.0000000e+0 -0.70710678 0.70710678
vn -0.50000000 -0.70710678 0.50000000
vn -0.50000000 -0.70710678 0.50000000
vn -1.00000000 0.0000000e+0 0.0000000e+0
vn -1.00000000 0.0000000e+0 0.0000000e+0
vn -0.50000000 -0.70710678 -0.50000000
vn -0.50000000 -0.70710678 -0.50000000
vn 0.0000000e+0 -0.70710678 -0.70710678
vn 0.0000000e+0 -0.70710678 -0.70710678
vn 0.31622777 -0.89442719 -0.31622777
vn 0.50000000 -0.70710678 -0.50000000
vn 0.67441530 0.30054616 -0.67441530
vn 0.91016827 0.41423871 0.0000000e+0
vn -0.67441530 0.30054616 0.67441530
vn -0.91016827 0.41423871 0.0000000e+0
vn 0.67441530 0.30054616 0.67441530
vn 0.0000000e+0 0.41423871 0.91016827
vn 0.0000000e+0 0.41423871 0.91016827
vn -0.67441530 0.30054616 0.67441530
vn -0.67441530 0.30054616 -0.67441530
vn 0.0000000e+0 0.41423871 -0.91016827
vn 0.91016827 0.41423871 0.0000000e+0
vn 0.67441530 0.30054616 0.67441530
vn -0.91016827 0.41423871 0.0000000e+0
vn -0.67441530 0.30054616 -0.67441530
vn 0.0000000e+0 0.41423871 -0.91016827
vn 0.67441530 0.30054616 -0.67441530
vn 0.34892748 0.86976964 -0.34892748
vn -0.34892748 0.86976964 -0.34892748
vn -0.34892748 0.86976964 0.34892748
vn 0.34892748 0.86976964 0.34892748
g Cylinder8_default2
usemtl default2
s 1
f 2//2 4//4 3//3 15//15
f 3//3 21//21 22//22 6//6
f 4//4 2//2 1//1
f 4//4 28//28 21//21 3//3
f 5//5 14//14 13//13 6//6
f 5//5 23//23 24//24 8//8
f 6//6 13//13 16//16 3//3
f 6//6 22//22 23//23 5//5
f 7//7 8//8 24//24 19//19
f 7//7 19//19 20//20 10//10
f 8//8 11//11 14//14 5//5
f 9//9 29//29 30//30 12//12
f 10//10 9//9 12//12 7//7
f 11//11 8//8 7//7 12//12
f 11//11 25//25 26//26 14//14
f 12//12 30//30 25//25 11//11
f 13//13 31//31 32//32 16//16
f 14//14 26//26 31//31 13//13
f 15//15 3//3 16//16
f 16//16 32//32 17//17 15//15
f 17//17 33//33 18//18
f 18//18 27//27 1//1 2//2
f 18//18 33//33 36//36 27//27
f 19//19 35//35 20//20
f 20//20 29//29 9//9 10//10
f 20//20 35//35 34//34 29//29
f 21//21 36//36 22//22
f 22//22 36//36 35//35 23//23
f 23//23 35//35 24//24
f 24//24 35//35 19//19
f 25//25 34//34 26//26
f 26//26 34//34 33//33 31//31
f 27//27 36//36 28//28
f 28//28 36//36 21//21
f 29//29 34//34 30//30
f 30//30 34//34 25//25
f 31//31 33//33 32//32
f 32//32 33//33 17//17
f 33//33 34//34 35//35 36//36
